<?xml version="1.0"?>
<svg xmlns="http://www.w3.org/2000/svg" height="512px" viewBox="0 0 64 64" width="512px"><g><g id="Analysis"><path d="m31 8.88v26.12h-24v26h50v-26h-3.04a17.881 17.881 0 0 0 3.04-10c0-.33-.01-.67-.03-1h-17.97v-17a17.881 17.881 0 0 0 -8 1.88zm22 44.12a4 4 0 0 0 -4 4h-34a4 4 0 0 0 -4-4v-10a4 4 0 0 0 4-4h34a4 4 0 0 0 4 4z" fill="#bddbff" data-original="#BDDBFF" class="active-path" style="fill:#92A1AC" data-old_color="#bddbff"/><circle cx="33" cy="48" fill="#bddbff" r="5" data-original="#BDDBFF" class="active-path" style="fill:#92A1AC" data-old_color="#bddbff"/><path d="m10 3-7 7h7z" fill="#bddbff" data-original="#BDDBFF" class="active-path" style="fill:#92A1AC" data-old_color="#bddbff"/><g fill="#57a4ff"><path d="m57 34h-1.28a18.886 18.886 0 0 0 2.28-9c0-.35-.01-.71-.03-1.06a1 1 0 0 0 -1-.94h-16.97v-16a1 1 0 0 0 -1-1 18.751 18.751 0 0 0 -7 1.35v-4.35a1 1 0 0 0 -1-1h-21a1.033 1.033 0 0 0 -.71.29l-7 7a1.033 1.033 0 0 0 -.29.71v25a1 1 0 0 0 1 1h3v25a1 1 0 0 0 1 1h50a1 1 0 0 0 1-1v-26a1 1 0 0 0 -1-1zm-25-24.47a16.885 16.885 0 0 1 6-1.5v15.97a1 1 0 0 0 1 1h17a16.816 16.816 0 0 1 -2.6 9h-21.4zm-23-4.12v3.59h-3.59zm-5 28.59v-23h6a1 1 0 0 0 1-1v-6h19v30zm52 26h-48v-24h48z" data-original="#57A4FF" class="" style="fill:#374957" data-old_color="#57A4FF"/><path d="m43 2a1 1 0 0 0 -1 1v17a1 1 0 0 0 1 1h18v-.01a.994.994 0 0 0 .7-.3 1.059 1.059 0 0 0 .27-.74 18.984 18.984 0 0 0 -18.97-17.95zm1 17v-14.97a16.978 16.978 0 0 1 15.88 14.97z" data-original="#57A4FF" class="" style="fill:#374957" data-old_color="#57A4FF"/><path d="m53 42a3.009 3.009 0 0 1 -3-3 1 1 0 0 0 -1-1h-34a1 1 0 0 0 -1 1 3.009 3.009 0 0 1 -3 3 1 1 0 0 0 -1 1v10a1 1 0 0 0 1 1 3.009 3.009 0 0 1 3 3 1 1 0 0 0 1 1h34a1 1 0 0 0 1-1 3.009 3.009 0 0 1 3-3 1 1 0 0 0 1-1v-10a1 1 0 0 0 -1-1zm-1 10.1a5.01 5.01 0 0 0 -3.9 3.9h-32.2a5.01 5.01 0 0 0 -3.9-3.9v-8.2a5.01 5.01 0 0 0 3.9-3.9h32.2a5.01 5.01 0 0 0 3.9 3.9z" data-original="#57A4FF" class="" style="fill:#374957" data-old_color="#57A4FF"/><path d="m33 42a6 6 0 1 0 6 6 6 6 0 0 0 -6-6zm0 10a4 4 0 1 1 4-4 4 4 0 0 1 -4 4z" data-original="#57A4FF" class="" style="fill:#374957" data-old_color="#57A4FF"/><path d="m17 28a9 9 0 1 0 -9-9 9.01 9.01 0 0 0 9 9zm0-16a7 7 0 1 1 -7 7 7.009 7.009 0 0 1 7-7z" data-original="#57A4FF" class="" style="fill:#374957" data-old_color="#57A4FF"/><path d="m17 22a1 1 0 0 1 -1-1h-2a3 3 0 0 0 2 2.816v1.184h2v-1.184a2.993 2.993 0 0 0 -1-5.816 1 1 0 1 1 1-1h2a3 3 0 0 0 -2-2.816v-1.184h-2v1.184a2.993 2.993 0 0 0 1 5.816 1 1 0 0 1 0 2z" data-original="#57A4FF" class="" style="fill:#374957" data-old_color="#57A4FF"/></g></g></g> </svg>
