<svg xmlns="http://www.w3.org/2000/svg" xmlns:xlink="http://www.w3.org/1999/xlink" width="293.496" height="293.496" viewBox="0 0 293.496 293.496">
  <defs>
    <filter id="Ret창ngulo_54" x="0" y="0" width="293.496" height="293.496" filterUnits="userSpaceOnUse">
      <feOffset input="SourceAlpha"/>
      <feGaussianBlur stdDeviation="15" result="blur"/>
      <feFlood flood-opacity="0.078"/>
      <feComposite operator="in" in2="blur"/>
      <feComposite in="SourceGraphic"/>
    </filter>
  </defs>
  <g id="Grupo_128" data-name="Grupo 128" transform="translate(45 45)">
    <g transform="matrix(1, 0, 0, 1, -45, -45)" filter="url(#Ret창ngulo_54)">
      <rect id="Ret창ngulo_54-2" data-name="Ret창ngulo 54" width="203.496" height="203.496" rx="25" transform="translate(45 45)" fill="#fff"/>
    </g>
    <g id="calculator" transform="translate(47.822 43.752)">
      <g id="Grupo_55" data-name="Grupo 55" transform="translate(0 42.452)">
        <g id="Grupo_54" data-name="Grupo 54">
          <path id="Caminho_297" data-name="Caminho 297" d="M70.03,176H21.789A5.789,5.789,0,0,0,16,181.789v61.749a5.789,5.789,0,0,0,5.789,5.789H70.03a5.789,5.789,0,0,0,5.789-5.789V181.789A5.789,5.789,0,0,0,70.03,176Zm1.93,67.538a1.93,1.93,0,0,1-1.93,1.93H21.789a1.93,1.93,0,0,1-1.93-1.93V181.789a1.93,1.93,0,0,1,1.93-1.93H70.03a1.93,1.93,0,0,1,1.93,1.93Z" transform="translate(-16 -176)" fill="#ff7657"/>
        </g>
      </g>
      <g id="Grupo_57" data-name="Grupo 57" transform="translate(7.719 50.171)">
        <g id="Grupo_56" data-name="Grupo 56">
          <path id="Caminho_298" data-name="Caminho 298" d="M90.452,208H49.93A1.93,1.93,0,0,0,48,209.93v11.578a1.93,1.93,0,0,0,1.93,1.93H90.452a1.93,1.93,0,0,0,1.93-1.93V209.93A1.93,1.93,0,0,0,90.452,208Zm-1.93,11.578H51.859v-7.719H88.523Z" transform="translate(-48 -208)" fill="#ff7657"/>
        </g>
      </g>
      <g id="Grupo_59" data-name="Grupo 59" transform="translate(7.719 69.467)">
        <g id="Grupo_58" data-name="Grupo 58">
          <path id="Caminho_299" data-name="Caminho 299" d="M59.578,288H49.93A1.93,1.93,0,0,0,48,289.93v7.719a1.93,1.93,0,0,0,1.93,1.93h9.648a1.93,1.93,0,0,0,1.93-1.93V289.93A1.93,1.93,0,0,0,59.578,288Zm-1.93,7.719H51.859v-3.859h5.789Z" transform="translate(-48 -288)" fill="#ff7657"/>
        </g>
      </g>
      <g id="Grupo_61" data-name="Grupo 61" transform="translate(23.156 69.467)">
        <g id="Grupo_60" data-name="Grupo 60">
          <path id="Caminho_300" data-name="Caminho 300" d="M123.578,288H113.93a1.93,1.93,0,0,0-1.93,1.93v7.719a1.93,1.93,0,0,0,1.93,1.93h9.648a1.93,1.93,0,0,0,1.93-1.93V289.93A1.93,1.93,0,0,0,123.578,288Zm-1.93,7.719h-5.789v-3.859h5.789Z" transform="translate(-112 -288)" fill="#ff7657"/>
        </g>
      </g>
      <g id="Grupo_63" data-name="Grupo 63" transform="translate(38.593 69.467)">
        <g id="Grupo_62" data-name="Grupo 62">
          <path id="Caminho_301" data-name="Caminho 301" d="M187.578,288H177.93a1.93,1.93,0,0,0-1.93,1.93v7.719a1.93,1.93,0,0,0,1.93,1.93h9.648a1.93,1.93,0,0,0,1.93-1.93V289.93A1.93,1.93,0,0,0,187.578,288Zm-1.93,7.719h-5.789v-3.859h5.789Z" transform="translate(-176 -288)" fill="#ff7657"/>
        </g>
      </g>
      <g id="Grupo_65" data-name="Grupo 65" transform="translate(7.719 82.975)">
        <g id="Grupo_64" data-name="Grupo 64">
          <path id="Caminho_302" data-name="Caminho 302" d="M59.578,344H49.93A1.93,1.93,0,0,0,48,345.93v7.719a1.93,1.93,0,0,0,1.93,1.93h9.648a1.93,1.93,0,0,0,1.93-1.93V345.93A1.93,1.93,0,0,0,59.578,344Zm-1.93,7.719H51.859v-3.859h5.789Z" transform="translate(-48 -344)" fill="#ff7657"/>
        </g>
      </g>
      <g id="Grupo_67" data-name="Grupo 67" transform="translate(23.156 82.975)">
        <g id="Grupo_66" data-name="Grupo 66">
          <path id="Caminho_303" data-name="Caminho 303" d="M123.578,344H113.93a1.93,1.93,0,0,0-1.93,1.93v7.719a1.93,1.93,0,0,0,1.93,1.93h9.648a1.93,1.93,0,0,0,1.93-1.93V345.93A1.93,1.93,0,0,0,123.578,344Zm-1.93,7.719h-5.789v-3.859h5.789Z" transform="translate(-112 -344)" fill="#ff7657"/>
        </g>
      </g>
      <g id="Grupo_69" data-name="Grupo 69" transform="translate(38.593 82.975)">
        <g id="Grupo_68" data-name="Grupo 68">
          <path id="Caminho_304" data-name="Caminho 304" d="M187.578,344H177.93a1.93,1.93,0,0,0-1.93,1.93v21.226a1.93,1.93,0,0,0,1.93,1.93h9.648a1.93,1.93,0,0,0,1.93-1.93V345.93A1.93,1.93,0,0,0,187.578,344Zm-1.93,21.226h-5.789V347.859h5.789Z" transform="translate(-176 -344)" fill="#ff7657"/>
        </g>
      </g>
      <g id="Grupo_71" data-name="Grupo 71" transform="translate(7.719 96.483)">
        <g id="Grupo_70" data-name="Grupo 70">
          <path id="Caminho_305" data-name="Caminho 305" d="M59.578,400H49.93A1.93,1.93,0,0,0,48,401.93v7.719a1.93,1.93,0,0,0,1.93,1.93h9.648a1.93,1.93,0,0,0,1.93-1.93V401.93A1.93,1.93,0,0,0,59.578,400Zm-1.93,7.719H51.859v-3.859h5.789Z" transform="translate(-48 -400)" fill="#ff7657"/>
        </g>
      </g>
      <g id="Grupo_73" data-name="Grupo 73" transform="translate(23.156 96.483)">
        <g id="Grupo_72" data-name="Grupo 72">
          <path id="Caminho_306" data-name="Caminho 306" d="M123.578,400H113.93a1.93,1.93,0,0,0-1.93,1.93v7.719a1.93,1.93,0,0,0,1.93,1.93h9.648a1.93,1.93,0,0,0,1.93-1.93V401.93A1.93,1.93,0,0,0,123.578,400Zm-1.93,7.719h-5.789v-3.859h5.789Z" transform="translate(-112 -400)" fill="#ff7657"/>
        </g>
      </g>
      <g id="Grupo_75" data-name="Grupo 75" transform="translate(19.297 0)">
        <g id="Grupo_74" data-name="Grupo 74">
          <path id="Caminho_307" data-name="Caminho 307" d="M184.613,33.991a1.881,1.881,0,0,0-.417-.623l-32.8-32.8a1.88,1.88,0,0,0-.623-.417A1.909,1.909,0,0,0,150.03,0H97.93A1.93,1.93,0,0,0,96,1.93V36.663a1.93,1.93,0,0,0,3.859,0V3.859H148.1V34.734a1.93,1.93,0,0,0,1.93,1.93H180.9V111.92H142.312a1.93,1.93,0,1,0,0,3.859h40.523a1.93,1.93,0,0,0,1.93-1.93V34.734A1.909,1.909,0,0,0,184.613,33.991ZM151.96,32.8V6.588L178.176,32.8Z" transform="translate(-96 0)" fill="#ff7657"/>
        </g>
      </g>
      <g id="Grupo_77" data-name="Grupo 77" transform="translate(27.015 17.367)">
        <g id="Grupo_76" data-name="Grupo 76">
          <path id="Caminho_308" data-name="Caminho 308" d="M166.593,72H129.93a1.93,1.93,0,0,0,0,3.859h36.663a1.93,1.93,0,0,0,0-3.859Z" transform="translate(-128 -72)" fill="#ff7657"/>
        </g>
      </g>
      <g id="Grupo_79" data-name="Grupo 79" transform="translate(27.015 32.804)">
        <g id="Grupo_78" data-name="Grupo 78">
          <path id="Caminho_309" data-name="Caminho 309" d="M166.593,136H129.93a1.93,1.93,0,1,0,0,3.859h36.663a1.93,1.93,0,1,0,0-3.859Z" transform="translate(-128 -136)" fill="#ff7657"/>
        </g>
      </g>
      <g id="Grupo_81" data-name="Grupo 81" transform="translate(63.678 48.241)">
        <g id="Grupo_80" data-name="Grupo 80">
          <path id="Caminho_310" data-name="Caminho 310" d="M314.734,200h-32.8a1.93,1.93,0,0,0,0,3.859h32.8a1.93,1.93,0,0,0,0-3.859Z" transform="translate(-280 -200)" fill="#ff7657"/>
        </g>
      </g>
      <g id="Grupo_83" data-name="Grupo 83" transform="translate(63.678 63.678)">
        <g id="Grupo_82" data-name="Grupo 82">
          <path id="Caminho_311" data-name="Caminho 311" d="M314.734,264h-32.8a1.93,1.93,0,0,0,0,3.859h32.8a1.93,1.93,0,0,0,0-3.859Z" transform="translate(-280 -264)" fill="#ff7657"/>
        </g>
      </g>
      <g id="Grupo_85" data-name="Grupo 85" transform="translate(63.678 79.116)">
        <g id="Grupo_84" data-name="Grupo 84">
          <path id="Caminho_312" data-name="Caminho 312" d="M314.734,328h-32.8a1.93,1.93,0,0,0,0,3.859h32.8a1.93,1.93,0,0,0,0-3.859Z" transform="translate(-280 -328)" fill="#ff7657"/>
        </g>
      </g>
      <g id="Grupo_87" data-name="Grupo 87" transform="translate(63.678 94.553)">
        <g id="Grupo_86" data-name="Grupo 86">
          <path id="Caminho_313" data-name="Caminho 313" d="M314.734,392h-32.8a1.93,1.93,0,0,0,0,3.859h32.8a1.93,1.93,0,0,0,0-3.859Z" transform="translate(-280 -392)" fill="#ff7657"/>
        </g>
      </g>
    </g>
  </g>
</svg>
