<?xml version="1.0"?>
<svg xmlns="http://www.w3.org/2000/svg" height="512px" viewBox="0 0 480.00002 480" width="512px" class=""><g><path d="m360 239.898438h112v-88c0-8.835938-7.164062-16-16-16h-416c-17.671875 0-32-14.328126-32-32v336c0 17.671874 14.328125 32 32 32h416c8.835938 0 16-7.164063 16-16v-120h-112c-17.671875 0-32-14.328126-32-32v-32c0-17.671876 14.328125-32 32-32zm0 0" fill="#9bc9ff" data-original="#9BC9FF" class="active-path" style="fill:#92A1AC" data-old_color="#9bc9ff"/><path d="m392 287.898438c0 8.835937-7.164062 16-16 16s-16-7.164063-16-16c0-8.835938 7.164062-16 16-16s16 7.164062 16 16zm0 0" fill="#9bc9ff" data-original="#9BC9FF" class="active-path" style="fill:#92A1AC" data-old_color="#9bc9ff"/><path d="m292.640625 71.898438c-10.761719-37.824219-45.316406-63.914063-84.640625-63.914063s-73.878906 26.089844-84.640625 63.914063c-2.261719 7.796874-3.394531 15.878906-3.359375 24-.03125 13.90625 3.261719 27.621093 9.601562 40h156.796876c6.339843-12.378907 9.632812-26.09375 9.601562-40 .035156-8.121094-1.097656-16.203126-3.359375-24zm0 0" fill="#9bc9ff" data-original="#9BC9FF" class="active-path" style="fill:#92A1AC" data-old_color="#9bc9ff"/><g fill="#1e81ce"><path d="m56 431.898438h16v16h-16zm0 0" data-original="#1E81CE" class="" style="fill:#374957" data-old_color="#1E81CE"/><path d="m24 431.898438h16v16h-16zm0 0" data-original="#1E81CE" class="" style="fill:#374957" data-old_color="#1E81CE"/><path d="m88 431.898438h16v16h-16zm0 0" data-original="#1E81CE" class="" style="fill:#374957" data-old_color="#1E81CE"/><path d="m120 431.898438h16v16h-16zm0 0" data-original="#1E81CE" class="" style="fill:#374957" data-old_color="#1E81CE"/><path d="m152 431.898438h16v16h-16zm0 0" data-original="#1E81CE" class="" style="fill:#374957" data-old_color="#1E81CE"/><path d="m152 431.898438h16v16h-16zm0 0" data-original="#1E81CE" class="" style="fill:#374957" data-old_color="#1E81CE"/><path d="m184 431.898438h16v16h-16zm0 0" data-original="#1E81CE" class="" style="fill:#374957" data-old_color="#1E81CE"/><path d="m216 431.898438h16v16h-16zm0 0" data-original="#1E81CE" class="" style="fill:#374957" data-old_color="#1E81CE"/><path d="m248 431.898438h16v16h-16zm0 0" data-original="#1E81CE" class="" style="fill:#374957" data-old_color="#1E81CE"/><path d="m280 431.898438h16v16h-16zm0 0" data-original="#1E81CE" class="" style="fill:#374957" data-old_color="#1E81CE"/><path d="m312 431.898438h16v16h-16zm0 0" data-original="#1E81CE" class="" style="fill:#374957" data-old_color="#1E81CE"/><path d="m344 431.898438h16v16h-16zm0 0" data-original="#1E81CE" class="" style="fill:#374957" data-old_color="#1E81CE"/><path d="m376 431.898438h16v16h-16zm0 0" data-original="#1E81CE" class="" style="fill:#374957" data-old_color="#1E81CE"/><path d="m408 431.898438h16v16h-16zm0 0" data-original="#1E81CE" class="" style="fill:#374957" data-old_color="#1E81CE"/><path d="m440 431.898438h16v16h-16zm0 0" data-original="#1E81CE" class="" style="fill:#374957" data-old_color="#1E81CE"/><path d="m456 127.898438h-40v-40c0-13.253907-10.746094-24-24-24h-93.601562c-13.554688-38.296876-49.773438-63.898438-90.398438-63.898438s-76.84375 25.601562-90.398438 63.898438h-77.601562c-10.613281-.011719-20.792969 4.199218-28.296875 11.703124-7.503906 7.503907-11.7148438 17.683594-11.703125 28.296876v336c.0273438 22.078124 17.917969 39.972656 40 40h416c13.253906 0 24-10.746094 24-24v-304c0-13.253907-10.746094-24-24-24zm-64-48c4.417969 0 8 3.582031 8 8v40h-101.472656c1.015625-2.886719 1.855468-5.832032 2.601562-8.800782.183594-.800781.328125-1.550781.496094-2.328125.574219-2.601562 1.046875-5.230469 1.40625-7.878906.128906-.945313.265625-1.890625.367188-2.832031.378906-3.375.578124-6.765625.601562-10.160156 0-2.527344-.121094-5.023438-.304688-7.503907-.0625-.800781-.167968-1.601562-.246093-2.351562-.167969-1.695313-.371094-3.378907-.632813-5.042969-.054687-.367188-.074218-.742188-.136718-1.101562zm-184-64c35.777344.074218 67.179688 23.839843 76.96875 58.253906 2.046875 7.066406 3.066406 14.390625 3.03125 21.746094-.007812 2.992187-.179688 5.984374-.519531 8.960937-.105469.957031-.296875 1.894531-.433594 2.839844-.292969 1.984375-.605469 4-1.046875 5.902343-.246094 1.097657-.566406 2.175782-.863281 3.265626-.472657 1.765624-.992188 3.519531-1.601563 5.246093-.390625 1.113281-.800781 2.207031-1.253906 3.304688-.328125.839843-.730469 1.65625-1.089844 2.480469h-42.335937c2.65625-9.578126.644531-19.847657-5.425781-27.71875-6.070313-7.867188-15.492188-12.417969-25.429688-12.28125-8.835938 0-16-7.164063-16-16 0-8.835938 7.164062-16 16-16s16 7.164062 16 16c0 4.417968 3.582031 8 8 8s8-3.582032 8-8c-.054688-14.546876-9.914062-27.226563-24-30.863282v-9.136718c0-4.417969-3.582031-8-8-8s-8 3.582031-8 8v9.136718c-15.585938 4.011719-25.753906 18.992188-23.71875 34.957032 2.03125 15.964843 15.625 27.925781 31.71875 27.90625 8.835938 0 16 7.164062 16 16-.007812 2.8125-.761719 5.574218-2.191406 8h-27.617188c-1.429687-2.425782-2.183594-5.1875-2.191406-8 0-4.417969-3.582031-8-8-8s-8 3.582031-8 8c.042969 2.703124.425781 5.390624 1.144531 8h-42.34375c-.359375-.800782-.800781-1.601563-1.089843-2.480469-.4375-1.097657-.863282-2.191407-1.253907-3.304688-.601562-1.726562-1.121093-3.480469-1.601562-5.246093-.296875-1.089844-.617188-2.167969-.863281-3.265626-.441407-1.945312-.753907-3.917968-1.046876-5.902343-.136718-.945313-.328124-1.882813-.433593-2.839844-.335938-2.976563-.507813-5.96875-.511719-8.960937-.03125-7.386719.996094-14.738282 3.054688-21.832032 9.8125-34.375 41.195312-58.101562 76.945312-58.167968zm-185.023438 71.054687c4.519532-4.507813 10.640626-7.046875 17.023438-7.054687h73.320312c-.0625.367187-.082031.800781-.144531 1.128906-.253906 1.636718-.449219 3.300781-.617187 4.964844-.085938.800781-.191406 1.601562-.253906 2.402343-.183594 2.480469-.304688 4.976563-.304688 7.496094.023438 3.390625.222656 6.78125.601562 10.152344.101563.949219.230469 1.878906.367188 2.824219.359375 2.65625.800781 5.277343 1.40625 7.894531.167969.800781.3125 1.550781.496094 2.320312.746094 2.976563 1.601562 5.917969 2.601562 8.800781h-77.472656c-9.707031.011719-18.460938-5.824218-22.1875-14.785156-3.726562-8.964844-1.6875-19.285156 5.164062-26.160156zm433.023438 376.945313h-416c-13.253906 0-24-10.746094-24-24v-304.207032c6.882812 5.292969 15.316406 8.175782 24 8.207032h416c4.417969 0 8 3.582031 8 8v80h-104c-22.082031.027343-39.972656 17.917968-40 40v32c.027344 22.078124 17.917969 39.972656 40 40h104v112c0 4.417968-3.582031 8-8 8zm8-136h-104c-13.253906 0-24-10.746094-24-24v-32c0-13.253907 10.746094-24 24-24h104zm0 0" data-original="#1E81CE" class="" style="fill:#374957" data-old_color="#1E81CE"/><path d="m56 159.898438h16v16h-16zm0 0" data-original="#1E81CE" class="" style="fill:#374957" data-old_color="#1E81CE"/><path d="m24 159.898438h16v16h-16zm0 0" data-original="#1E81CE" class="" style="fill:#374957" data-old_color="#1E81CE"/><path d="m88 159.898438h16v16h-16zm0 0" data-original="#1E81CE" class="" style="fill:#374957" data-old_color="#1E81CE"/><path d="m120 159.898438h16v16h-16zm0 0" data-original="#1E81CE" class="" style="fill:#374957" data-old_color="#1E81CE"/><path d="m152 159.898438h16v16h-16zm0 0" data-original="#1E81CE" class="" style="fill:#374957" data-old_color="#1E81CE"/><path d="m184 159.898438h16v16h-16zm0 0" data-original="#1E81CE" class="" style="fill:#374957" data-old_color="#1E81CE"/><path d="m216 159.898438h16v16h-16zm0 0" data-original="#1E81CE" class="" style="fill:#374957" data-old_color="#1E81CE"/><path d="m248 159.898438h16v16h-16zm0 0" data-original="#1E81CE" class="" style="fill:#374957" data-old_color="#1E81CE"/><path d="m280 159.898438h16v16h-16zm0 0" data-original="#1E81CE" class="" style="fill:#374957" data-old_color="#1E81CE"/><path d="m312 159.898438h16v16h-16zm0 0" data-original="#1E81CE" class="" style="fill:#374957" data-old_color="#1E81CE"/><path d="m344 159.898438h16v16h-16zm0 0" data-original="#1E81CE" class="" style="fill:#374957" data-old_color="#1E81CE"/><path d="m376 159.898438h16v16h-16zm0 0" data-original="#1E81CE" class="" style="fill:#374957" data-old_color="#1E81CE"/><path d="m408 159.898438h16v16h-16zm0 0" data-original="#1E81CE" class="" style="fill:#374957" data-old_color="#1E81CE"/><path d="m440 159.898438h16v16h-16zm0 0" data-original="#1E81CE" class="" style="fill:#374957" data-old_color="#1E81CE"/><path d="m352 287.898438c0 13.253906 10.746094 24 24 24s24-10.746094 24-24c0-13.253907-10.746094-24-24-24s-24 10.746093-24 24zm24-8c4.417969 0 8 3.582031 8 8 0 4.417968-3.582031 8-8 8s-8-3.582032-8-8c0-4.417969 3.582031-8 8-8zm0 0" data-original="#1E81CE" class="" style="fill:#374957" data-old_color="#1E81CE"/></g></g> </svg>
