<svg xmlns="http://www.w3.org/2000/svg" xmlns:xlink="http://www.w3.org/1999/xlink" width="246.462" height="246.462" viewBox="0 0 246.462 246.462">
  <defs>
    <filter id="Ret창ngulo_53" x="0" y="0" width="246.462" height="246.462" filterUnits="userSpaceOnUse">
      <feOffset input="SourceAlpha"/>
      <feGaussianBlur stdDeviation="15" result="blur"/>
      <feFlood flood-opacity="0.078"/>
      <feComposite operator="in" in2="blur"/>
      <feComposite in="SourceGraphic"/>
    </filter>
  </defs>
  <g id="Grupo_129" data-name="Grupo 129" transform="translate(45 45)">
    <g transform="matrix(1, 0, 0, 1, -45, -45)" filter="url(#Ret창ngulo_53)">
      <rect id="Ret창ngulo_53-2" data-name="Ret창ngulo 53" width="156.462" height="156.462" rx="25" transform="translate(45 45)" fill="#fff"/>
    </g>
    <g id="money" transform="translate(33.639 35.204)">
      <g id="Grupo_89" data-name="Grupo 89" transform="translate(0 28.196)">
        <g id="Grupo_88" data-name="Grupo 88">
          <path id="Caminho_314" data-name="Caminho 314" d="M75.457,160.017H1.271A1.27,1.27,0,0,0,0,161.285V196.9a1.27,1.27,0,0,0,1.269,1.271H51.715a1.271,1.271,0,1,0,0-2.543H2.543V162.56H74.182v3.179a1.27,1.27,0,0,0,1.269,1.271h0a1.27,1.27,0,0,0,1.271-1.269v-4.454A1.27,1.27,0,0,0,75.457,160.017Z" transform="translate(0 -160.017)" fill="#ff7657"/>
        </g>
      </g>
      <g id="Grupo_91" data-name="Grupo 91" transform="translate(2.966 8.909)">
        <g id="Grupo_90" data-name="Grupo 90">
          <path id="Caminho_315" data-name="Caminho 315" d="M79.86,69.4,20.514,56.05a1.271,1.271,0,0,0-1.521.964L16.026,70.367a1.272,1.272,0,1,0,2.484.552L21.2,58.811,79.3,71.883a1.2,1.2,0,0,0,.28.031A1.271,1.271,0,0,0,79.86,69.4Z" transform="translate(-15.995 -56.019)" fill="#ff7657"/>
        </g>
      </g>
      <g id="Grupo_93" data-name="Grupo 93" transform="translate(19.264 0)">
        <g id="Grupo_92" data-name="Grupo 92">
          <path id="Caminho_316" data-name="Caminho 316" d="M144.235,22.917,108.628,8.081A1.276,1.276,0,0,0,107,8.687l-2.967,5.935a1.276,1.276,0,1,0,2.245,1.214c.013-.024.026-.049.037-.074v0l2.435-4.872L143.253,25.27a1.275,1.275,0,1,0,.982-2.353Z" transform="translate(-103.875 -7.982)" fill="#ff7657"/>
        </g>
      </g>
      <g id="Grupo_95" data-name="Grupo 95" transform="translate(47.477 34.13)">
        <g id="Grupo_94" data-name="Grupo 94">
          <path id="Caminho_317" data-name="Caminho 317" d="M269.047,192.017H257.272a1.271,1.271,0,1,0,0,2.543h11.776a1.271,1.271,0,1,0,0-2.543Z" transform="translate(-256 -192.017)" fill="#48475c"/>
        </g>
      </g>
      <g id="Grupo_97" data-name="Grupo 97" transform="translate(23.823 34.215)">
        <g id="Grupo_96" data-name="Grupo 96">
          <path id="Caminho_318" data-name="Caminho 318" d="M141.512,192.473a13.056,13.056,0,1,0,13.056,13.056A13.056,13.056,0,0,0,141.512,192.473Zm0,23.738a10.682,10.682,0,1,1,10.682-10.682A10.682,10.682,0,0,1,141.512,216.211Z" transform="translate(-128.456 -192.473)" fill="#ff7657"/>
        </g>
      </g>
      <g id="Grupo_99" data-name="Grupo 99" transform="translate(56.166 38.369)">
        <g id="Grupo_98" data-name="Grupo 98">
          <path id="Caminho_319" data-name="Caminho 319" d="M319.176,214.873c-7.863,0-16.32,1.858-16.32,5.935v35.608c0,4.077,8.457,5.935,16.32,5.935s16.32-1.858,16.32-5.935V220.808C335.5,216.731,327.039,214.873,319.176,214.873Zm13.353,41.52c-.224.823-4.673,2.99-13.353,2.99s-13.129-2.166-13.353-2.967v-2.332c3.157,1.59,8.372,2.332,13.353,2.332s10.2-.749,13.353-2.334Zm0-5.935c-.224.823-4.673,2.99-13.353,2.99s-13.129-2.166-13.353-2.967v-2.332c3.157,1.59,8.372,2.332,13.353,2.332s10.2-.749,13.353-2.334Zm0-5.935c-.224.823-4.673,2.99-13.353,2.99s-13.129-2.166-13.353-2.967v-2.332c3.157,1.59,8.372,2.332,13.353,2.332s10.2-.749,13.353-2.334Zm0-5.935c-.224.823-4.673,2.99-13.353,2.99s-13.129-2.166-13.353-2.967v-2.332c3.157,1.59,8.372,2.332,13.353,2.332s10.2-.749,13.353-2.334Zm0-5.935c-.224.823-4.673,2.99-13.353,2.99s-13.129-2.166-13.353-2.967v-2.332c3.157,1.583,8.372,2.332,13.353,2.332s10.2-.749,13.353-2.334Zm0-5.935c-.224.823-4.673,2.99-13.353,2.99s-13.129-2.166-13.353-2.967V224.41c3.157,1.583,8.372,2.332,13.353,2.332s10.2-.749,13.353-2.334Zm-13.353-2.945c-8.666,0-13.114-2.16-13.353-2.941v-.009c.239-.826,4.687-2.985,13.353-2.985,8.605,0,13.056,2.128,13.353,2.967C332.232,221.647,327.781,223.775,319.176,223.775Z" transform="translate(-302.856 -214.873)" fill="#ff7657"/>
        </g>
      </g>
      <g id="Grupo_101" data-name="Grupo 101" transform="translate(5.933 34.13)">
        <g id="Grupo_100" data-name="Grupo 100">
          <path id="Caminho_320" data-name="Caminho 320" d="M51.069,215.754H39.854l-5.317-5.816v-9.644l5.872-5.734h10.66a1.271,1.271,0,0,0,0-2.543H39.892a1.273,1.273,0,0,0-.89.361l-6.627,6.464a1.594,1.594,0,0,0-.383,1.039v10.552a1.272,1.272,0,0,0,.332.858l6.028,6.593a1.271,1.271,0,0,0,.939.414H51.069a1.271,1.271,0,1,0,0-2.543Z" transform="translate(-31.992 -192.017)" fill="#48475c"/>
        </g>
      </g>
      <g id="Grupo_103" data-name="Grupo 103" transform="translate(32.428 40.595)">
        <g id="Grupo_102" data-name="Grupo 102">
          <path id="Caminho_321" data-name="Caminho 321" d="M180.049,232.066h-1.484c-.461,0-.742-.258-.742-.371s.28-.371.742-.371h3.709a1.484,1.484,0,1,0,0-2.967h-1.484a1.484,1.484,0,0,0-2.967,0v.067a3.454,3.454,0,0,0-2.967,3.264,3.543,3.543,0,0,0,3.709,3.346h1.484c.461,0,.742.258.742.371s-.28.371-.742.371H176.34a1.484,1.484,0,0,0,0,2.967h1.484a1.484,1.484,0,1,0,2.967,0v-.067a3.454,3.454,0,0,0,2.967-3.264A3.543,3.543,0,0,0,180.049,232.066Z" transform="translate(-174.856 -226.873)" fill="#ff7657"/>
        </g>
      </g>
    </g>
  </g>
</svg>
