<svg xmlns="http://www.w3.org/2000/svg" xmlns:xlink="http://www.w3.org/1999/xlink" width="518.046" height="298.529" viewBox="0 0 518.046 298.529">
  <defs>
    <linearGradient id="linear-gradient" x1="0.5" y1="1" x2="0.5" gradientUnits="objectBoundingBox">
      <stop offset="0" stop-color="gray" stop-opacity="0.251"/>
      <stop offset="0.54" stop-color="gray" stop-opacity="0.122"/>
      <stop offset="1" stop-color="gray" stop-opacity="0.102"/>
    </linearGradient>
    <linearGradient id="linear-gradient-2" y1="1" y2="0" xlink:href="#linear-gradient"/>
  </defs>
  <g id="undraw_finance_0bdk" transform="translate(-0.003 -0.06)">
    <path id="Caminho_242" data-name="Caminho 242" d="M254.522,524.475c-31.321-10.822-67.133-19.983-96.4-4.431-3.709,1.971-7.363,4.453-9.362,8.145-5.278,9.715,3.111,22.313-.977,32.581s-19.478,15.438-18.218,26.407a15.309,15.309,0,0,0,3.714,7.7c11.463,14,32.478,15.422,50.24,11.946s35.133-10.681,53.216-9.774c17.377.9,33.363,9.231,49.284,16.247,26.841,11.859,58.19,20.369,85.009,8.449,12.288-5.463,22.448-14.765,34.21-21.259a84.2,84.2,0,0,1,51.967-9.535c11.946,1.683,23.35,5.919,35.041,8.84,26.554,6.63,54.269,6.413,81.632,6.152,5.094-.049,10.268-.109,15.15-1.564,7.228-2.172,13.19-7.173,18.93-12.066,7.542-6.424,15.487-13.483,17.92-23.089,2.873-11.4-3.074-23.524-11.892-31.272S593.9,525.969,582.9,521.885c-2.715-1-5.615-2.015-8.4-1.26a11.448,11.448,0,0,0-4.724,3.025c-7.809,7.515-14.406,20.227-25.055,18.186-3.8-.728-6.913-3.372-9.921-5.816-16.062-13.032-37.669-23.095-57.055-15.894-14.178,5.267-24.186,18.794-38.554,23.567-10.22,3.4-21.324,1.928-32.076,2.59-15.639.956-30.86,6.484-46.52,6.147-39.933-.858-73.2-39.043-112.975-35.4-3.117.282-6.516,1-8.428,3.464" transform="translate(-125.967 -328.902)" fill="#ff7657" opacity="0.5"/>
    <path id="Caminho_243" data-name="Caminho 243" d="M259.44,465.9s-33.184,20.032,28.009,50.886c0,0,13.483-25.033-1.423-45.445a20.091,20.091,0,0,0-26.065-5.712Z" transform="translate(-181.245 -306.654)" fill="#ff7657"/>
    <path id="Caminho_244" data-name="Caminho 244" d="M267.73,467.52s28.411,21.721,27.618,51.288" transform="translate(-189.138 -308.687)" fill="none" stroke="#535461" stroke-miterlimit="10" stroke-width="1"/>
    <path id="Caminho_245" data-name="Caminho 245" d="M963.607,408.093c6.723,24.582-21.954,94.615-21.954,94.615s-60.34-45.684-67.068-70.266A46.156,46.156,0,1,1,963.6,408.087Z" transform="translate(-465.578 -265.529)" fill="#ff7657"/>
    <path id="Caminho_246" data-name="Caminho 246" d="M963.607,408.093c6.723,24.582-21.954,94.615-21.954,94.615s-60.34-45.684-67.068-70.266A46.156,46.156,0,1,1,963.6,408.087Z" transform="translate(-465.578 -265.529)" opacity="0.1"/>
    <path id="Caminho_247" data-name="Caminho 247" d="M936.21,378.27s37.56,56.7,34.753,126.947" transform="translate(-494.621 -267.901)" fill="none" stroke="#535461" stroke-miterlimit="10" stroke-width="1"/>
    <path id="Caminho_248" data-name="Caminho 248" d="M1032.449,518.375s-34.058-18.528-29.747,49.865c0,0,28.411-1.016,38.494-24.191a20.091,20.091,0,0,0-8.248-25.386Z" transform="translate(-524.835 -330.881)" fill="#ff7657"/>
    <path id="Caminho_249" data-name="Caminho 249" d="M1033.326,520.52s-4.4,35.5-30.306,49.746" transform="translate(-525.152 -332.907)" fill="none" stroke="#535461" stroke-miterlimit="10" stroke-width="1"/>
    <path id="Caminho_250" data-name="Caminho 250" d="M131.994,503.856s-33.2,20.026,28,50.864c0,0,13.483-25.033-1.423-45.445a20.092,20.092,0,0,0-26.065-5.713Z" transform="translate(-123 -323.987)" fill="#ff7657"/>
    <path id="Caminho_251" data-name="Caminho 251" d="M140.26,505.49s28.411,21.721,27.618,51.288" transform="translate(-130.886 -326.039)" fill="none" stroke="#535461" stroke-miterlimit="10" stroke-width="1"/>
    <path id="Caminho_252" data-name="Caminho 252" d="M595.187,406.372H560.3a11.632,11.632,0,0,0,1.216-5.2V242.31a11.68,11.68,0,0,0-11.68-11.68H279.775a11.68,11.68,0,0,0-11.68,11.68V401.181a11.631,11.631,0,0,0,1.216,5.2H233.19a3.09,3.09,0,0,0-3.09,3.106v2.492a17.279,17.279,0,0,0,17.279,17.279H581a17.279,17.279,0,0,0,17.279-17.279v-2.492a3.09,3.09,0,0,0-3.09-3.111Zm-214.975,9.883-3.008-3.394h74.274l-3.312,3.4Z" transform="translate(-171.941 -200.433)" fill="url(#linear-gradient)"/>
    <rect id="Retângulo_17" data-name="Retângulo 17" width="286.778" height="178.104" rx="23.26" transform="translate(99.461 32.446)" fill="#535461"/>
    <rect id="Retângulo_18" data-name="Retângulo 18" width="274.099" height="145.502" transform="translate(105.499 58.407)" fill="#fff"/>
    <circle id="Elipse_48" data-name="Elipse 48" cx="2.416" cy="2.416" r="2.416" transform="translate(240.135 43.311)" fill="#fff"/>
    <path id="Caminho_253" data-name="Caminho 253" d="M460.319,551.08l-9.416,9.66H384.514l-8.509-9.66H240.8a3.019,3.019,0,0,0-3.019,3.019v2.433a16.888,16.888,0,0,0,16.888,16.888h326.06a16.888,16.888,0,0,0,16.888-16.888V554.1a3.019,3.019,0,0,0-3.019-3.019Z" transform="translate(-175.451 -346.873)" fill="#535461"/>
    <path id="Caminho_254" data-name="Caminho 254" d="M258.77,124.19V247.954H463.433" transform="translate(-118.252 -56.725)" fill="none" stroke="#535461" stroke-miterlimit="10" stroke-width="2"/>
    <rect id="Retângulo_19" data-name="Retângulo 19" width="21.129" height="32.603" transform="translate(158.628 153.799)" fill="#ff7657" opacity="0.5"/>
    <rect id="Retângulo_20" data-name="Retângulo 20" width="21.129" height="61.584" transform="translate(194.852 124.818)" fill="#ff7657" opacity="0.7"/>
    <rect id="Retângulo_21" data-name="Retângulo 21" width="21.129" height="44.071" transform="translate(231.077 142.325)" fill="#ff7657" opacity="0.5"/>
    <rect id="Retângulo_22" data-name="Retângulo 22" width="21.129" height="71.244" transform="translate(267.302 115.158)" fill="#ff7657" opacity="0.8"/>
    <rect id="Retângulo_23" data-name="Retângulo 23" width="21.129" height="96.597" transform="translate(303.526 89.799)" fill="#ff7657"/>
    <path id="Caminho_255" data-name="Caminho 255" d="M311.02,200.253l36.827-33.206,36.225,31.392,35.622-38.033,36.225-15.1" transform="translate(-142.129 -66.377)" fill="none" stroke="#535461" stroke-miterlimit="10" stroke-width="2"/>
    <circle id="Elipse_49" data-name="Elipse 49" cx="4.225" cy="4.225" r="4.225" transform="translate(164.666 129.651)" fill="#ff7657"/>
    <circle id="Elipse_50" data-name="Elipse 50" cx="4.225" cy="4.225" r="4.225" transform="translate(237.115 127.235)" fill="#ff7657"/>
    <circle id="Elipse_51" data-name="Elipse 51" cx="4.225" cy="4.225" r="4.225" transform="translate(273.943 89.804)" fill="#ff7657"/>
    <circle id="Elipse_52" data-name="Elipse 52" cx="4.225" cy="4.225" r="4.225" transform="translate(201.494 95.837)" fill="#ff7657"/>
    <circle id="Elipse_53" data-name="Elipse 53" cx="4.225" cy="4.225" r="4.225" transform="translate(309.565 74.709)" fill="#ff7657"/>
    <path id="Caminho_256" data-name="Caminho 256" d="M886.217,384.566a21.176,21.176,0,0,0-8.145-1.281c-2.492-.907-8.352-3.258-12.354-6.8a89.093,89.093,0,0,0-.266-10.437c-2.047-23.279,2.558-38.625,2.558-38.625s3.616-11.707,3.22-21.422c.233.44.364.7.364.7.315-8.379,3.171-17.051,5.311-22.454a1.8,1.8,0,0,0,.239-.087l2.389-5.669a4.915,4.915,0,0,0,.451-1.048l.386-.9-.114-.049c.038-.147.076-.3.114-.462h0c1.526-6.456,2.715-21.77,2.715-21.77,4.094-16.117-5.626-26.065-5.626-26.065l-16.5-14.194a2.1,2.1,0,0,1,.163.581l-.136-.119c-.234-.668-.489-1.466-.739-2.378a13.946,13.946,0,0,0,5.327-7.993,25.018,25.018,0,0,0,.244-5.973l-.271-6.847a21.719,21.719,0,0,0-.407-3.991c-1.243-5.43-6.809-9.231-12.4-9.481a45.31,45.31,0,0,0-5.322.282,35.8,35.8,0,0,1-4.344.092.782.782,0,0,1-.467-.125.685.685,0,0,1-.2-.472,2.357,2.357,0,0,1,.576-1.765,2.172,2.172,0,0,1,.749-.429l-.4.092a2.171,2.171,0,0,1,.652-.353,12.648,12.648,0,0,0-4.116,1.493,5.313,5.313,0,0,0-.961.809,4.2,4.2,0,0,0-1.39,2.585,4.811,4.811,0,0,1-1.466-2.172,2.171,2.171,0,0,1,0-1.053q-.147.179-.282.369v-.114a10.978,10.978,0,0,0-2.172,4.42,1.721,1.721,0,0,1-.391-1.271q-.122.383-.228.766a1.775,1.775,0,0,1,0-.51,17.492,17.492,0,0,0-.853,6.071c0,2.053.912,5.251,3.112,5.973.114.038.228.065.347.092a13.809,13.809,0,0,0,9.313,21.091q.054.375.1.787h.087c.06.543.109,1.14.141,1.749a11.771,11.771,0,0,1-1.814,1.455,14.955,14.955,0,0,1-6.038,2,17.974,17.974,0,0,0-7.26,2.172c-2.634,1.472-5.539,3.616-6.451,6.223-1.52,4.344-9.894,11.1-15.508,11.946l-2-.114-.147-.043v.038l-.489-.027h-.157v.027l-.505-.027s-.049.233-.119.646c-2.824-.972-8.824-3.665-16.633-10.752-8.688-7.89-20.445-6.337-24.979-5.343a.777.777,0,0,0-.206,1.439c1.83,1,4.665,2.465,5.973,2.628,0,0-2.715,2.84.174,4.344a2.1,2.1,0,0,0,2.172-.212c1.4-1.026,5.294,1.3,10.937,2.509,0,0,15.921,16.475,23.828,19.006a11.4,11.4,0,0,0,.6,1.048l.489-.038v.038h.206l.06.543s12.294-.646,16.29-5.11a6.4,6.4,0,0,0,.776-.831l-4.274,53.759h.038l-.038.51h3.144a118.51,118.51,0,0,1-.853,19.8v35.046s-.163,3.084,6.245,7.6a239.533,239.533,0,0,1,19.4,15.036l.777.673c-1.178,10.725-3.644,30.713-5.7,31.457l1.271.223c-2.172,2.753-8.341,10.317-10.22,10.518-2.3.255-3.839,3.839,0,4.6a43.012,43.012,0,0,0,22.807-2.248,3.481,3.481,0,0,0,2.172-3.7l-.744-5.647a.794.794,0,0,1,.326.342c.51,1.537,0-2.047,0-2.047a160.053,160.053,0,0,0,4.947-20.635l7.6,6.57s.152-.19.418-.543c1.862,4.225,5.186,12.87,4.442,19.2-1.021,8.688,8.688,1.021,7.673-4.094-.825-4.138,2.867-21.677,4.306-28.237a2.916,2.916,0,0,0-1.955-3.4Z" transform="translate(-415.252 -175.07)" fill="url(#linear-gradient-2)"/>
    <path id="Caminho_257" data-name="Caminho 257" d="M807.845,285.169s-7.244-1.249-17.985-10.991c-8.5-7.705-19.961-6.19-24.381-5.218a.755.755,0,0,0-.2,1.4c1.786.977,4.556,2.406,5.854,2.568,0,0-2.677,2.769.168,4.252a2.047,2.047,0,0,0,2.14-.206c1.368-1,5.169,1.271,10.681,2.449,0,0,21.482,22.231,26.477,18.463Z" transform="translate(-416.328 -217.58)" fill="#fec3be"/>
    <path id="Caminho_258" data-name="Caminho 258" d="M912.11,234.791s2,8.493,0,14.488l8.992,1.249,7.993-4v-5.246a36.02,36.02,0,0,1-2.748-17.235Z" transform="translate(-483.608 -197.426)" fill="#fec3be"/>
    <path id="Caminho_259" data-name="Caminho 259" d="M959,570.251s6.516,12.739,5.5,21.232,8.493,1,7.494-4c-.809-4.04,2.8-21.178,4.2-27.553a2.846,2.846,0,0,0-1.89-3.318c-3-.988-8.031-2.2-10.556-.348C960.015,559.011,959,570.251,959,570.251Z" transform="translate(-505.036 -348.803)" fill="#8b416f"/>
    <path id="Caminho_260" data-name="Caminho 260" d="M902.53,607.959s-8.493,10.991-10.741,11.24-3.747,3.747,0,4.5a42,42,0,0,0,22.264-2.172,3.4,3.4,0,0,0,2.134-3.616l-1.434-10.7Z" transform="translate(-473.279 -372.523)" fill="#8b416f"/>
    <path id="Caminho_261" data-name="Caminho 261" d="M880.793,393.78l-8.145,1.086a119.21,119.21,0,0,1-.1,28.633v34.21s-.157,3.014,6.1,7.4a233.882,233.882,0,0,1,18.94,14.661L920.254,499.4s8.992-10.991,7.743-17.485c0,0-14.987-4.746-16.986-12.489-1.146-4.431-6.956-8.145-11.713-10.48a14.564,14.564,0,0,1-7.792-16.529,12.743,12.743,0,0,1,1.276-3.209c4-6.994,9.742-22.731,9.742-22.731l-10.991-20.95Z" transform="translate(-465.53 -274.989)" fill="#4d4981"/>
    <path id="Caminho_262" data-name="Caminho 262" d="M880.793,393.78l-8.145,1.086a119.21,119.21,0,0,1-.1,28.633v34.21s-.157,3.014,6.1,7.4a233.882,233.882,0,0,1,18.94,14.661L920.254,499.4s8.992-10.991,7.743-17.485c0,0-14.987-4.746-16.986-12.489-1.146-4.431-6.956-8.145-11.713-10.48a14.564,14.564,0,0,1-7.792-16.529,12.743,12.743,0,0,1,1.276-3.209c4-6.994,9.742-22.731,9.742-22.731l-10.991-20.95Z" transform="translate(-465.53 -274.989)" opacity="0.05"/>
    <path id="Caminho_263" data-name="Caminho 263" d="M903.1,511.271s14.737,2.5,15.237,4,0-2,0-2,8.493-25.728,6.516-48.453,2.5-37.718,2.5-37.718,5.245-16.986,2.248-26.727-34.471-5.5-34.471-5.5,10.991,25.728,10.741,37.968c0,0,1.249,36.969,3.5,41.215C909.346,474.036,905.849,510.255,903.1,511.271Z" transform="translate(-475.848 -275.069)" fill="#4d4981"/>
    <path id="Caminho_264" data-name="Caminho 264" d="M894.308,255.79s1.5,9.231,16.486,5.246l-9.97,75.93s-28.975,1-28.726-2.5l5.973-45.956Z" transform="translate(-465.323 -211.93)" fill="#fff"/>
    <path id="Caminho_265" data-name="Caminho 265" d="M881.453,254.87a12.175,12.175,0,0,1-7.217,3.426,17.555,17.555,0,0,0-7.092,2.107c-2.569,1.439-5.43,3.53-6.3,6.076-1.749,5-12.739,13.239-17.735,11.49l1.749,14.987s14.238-.749,16.736-6.245l-4.241,53.482H861.1s2-14.488,3.5-17.485,4.5-19.483,4.746-23.48,4-26.977,7.244-30.952l4.887-11.865Z" transform="translate(-452.076 -211.51)" opacity="0.1"/>
    <path id="Caminho_266" data-name="Caminho 266" d="M881.037,256.25a15.459,15.459,0,0,1-7.716,3.177,17.557,17.557,0,0,0-7.086,2.118c-2.568,1.439-5.43,3.53-6.3,6.076-1.749,5-12.739,13.239-17.735,11.49l1.748,14.987s14.238-.749,16.736-6.245L856.438,341.3h3.747s2-14.488,3.5-17.485,4.5-19.483,4.746-23.48,4-26.977,7.244-30.952l5.365-11.642Z" transform="translate(-451.66 -212.14)" opacity="0.1"/>
    <path id="Caminho_267" data-name="Caminho 267" d="M881.032,255.33a15.46,15.46,0,0,1-7.716,3.177,17.555,17.555,0,0,0-7.092,2.107c-2.569,1.439-5.43,3.53-6.3,6.076-1.749,5-12.739,13.239-17.735,11.49l1.749,14.987s14.238-.749,16.736-6.245L856.433,340.4h3.747s2-14.488,3.5-17.485,4.5-19.483,4.746-23.48,4-26.977,7.244-30.952l5.371-11.615Z" transform="translate(-451.656 -211.72)" fill="#fd6f8d"/>
    <path id="Caminho_268" data-name="Caminho 268" d="M925.723,232.049c-.326-2.368.326-3.845.625-6.619L912.11,236.171s.342,1.45.6,3.573a13.577,13.577,0,0,0,2.172.174C919.826,239.918,923.383,236.057,925.723,232.049Z" transform="translate(-483.608 -198.056)" opacity="0.1"/>
    <circle id="Elipse_54" data-name="Elipse 54" cx="13.489" cy="13.489" r="13.489" transform="translate(417.761 14.14)" fill="#fec3be"/>
    <path id="Caminho_269" data-name="Caminho 269" d="M890.05,192.4a17.072,17.072,0,0,1,1.086-6.674,1.667,1.667,0,0,0,.282,2.172,10.688,10.688,0,0,1,3.388-6.006,1.836,1.836,0,0,0-1.216,2.292,5.214,5.214,0,0,0,1.667,2.346,4.191,4.191,0,0,1,2.058-3.546,12.348,12.348,0,0,1,4.018-1.455,2.33,2.33,0,0,0-1.542,2.389.668.668,0,0,0,.2.462.766.766,0,0,0,.456.119,34.961,34.961,0,0,0,4.219-.092,44.251,44.251,0,0,1,5.2-.277c5.43.228,10.888,3.937,12.1,9.231a21.246,21.246,0,0,1,.4,3.9l.266,6.685a24.426,24.426,0,0,1-.239,5.843,12.381,12.381,0,0,1-6.359,8.406c-1.96-2.84-2.134-6.489-2.813-9.872a5,5,0,0,0-.847-2.172,1.906,1.906,0,0,0-2.091-.706,1.2,1.2,0,0,0-.44,1.911c-.543.641-1.558.163-2.172-.407a11.663,11.663,0,0,1-3.383-6.044c-.244-1.162-.489-2.6-1.629-2.992a3.03,3.03,0,0,0-1.206-.081c-2.378.163-6.1,1.146-8.4.391C890.94,197.533,890.05,194.4,890.05,192.4Z" transform="translate(-473.521 -177.995)" opacity="0.1"/>
    <path id="Caminho_270" data-name="Caminho 270" d="M890.51,191.941a17.068,17.068,0,0,1,1.086-6.674,1.667,1.667,0,0,0,.282,2.172,10.688,10.688,0,0,1,3.388-6.006,1.836,1.836,0,0,0-1.216,2.292,5.213,5.213,0,0,0,1.667,2.346,4.191,4.191,0,0,1,2.058-3.546,12.349,12.349,0,0,1,4.018-1.455,2.329,2.329,0,0,0-1.542,2.389.667.667,0,0,0,.2.462.765.765,0,0,0,.456.119,34.965,34.965,0,0,0,4.219-.092,44.253,44.253,0,0,1,5.2-.277c5.43.228,10.888,3.937,12.1,9.231a21.219,21.219,0,0,1,.4,3.9l.266,6.685a24.442,24.442,0,0,1-.239,5.843,12.382,12.382,0,0,1-6.359,8.406c-1.96-2.84-2.134-6.489-2.813-9.872a5,5,0,0,0-.847-2.172,1.906,1.906,0,0,0-2.091-.706,1.2,1.2,0,0,0-.44,1.911c-.543.641-1.558.163-2.172-.407a11.664,11.664,0,0,1-3.383-6.044c-.244-1.162-.489-2.6-1.629-2.992a3.031,3.031,0,0,0-1.206-.081c-2.378.163-6.1,1.146-8.4.391C891.4,197.067,890.51,193.945,890.51,191.941Z" transform="translate(-473.732 -177.784)" fill="#784f69"/>
    <path id="Caminho_271" data-name="Caminho 271" d="M840.552,297.42s-2,9.231,1.749,14.987l2.123-.174-1.157-14.661Z" transform="translate(-450.664 -230.954)" opacity="0.1"/>
    <path id="Caminho_272" data-name="Caminho 272" d="M841.552,297.42s-2,9.231,1.748,14.987l2.123-.174-1.157-14.661Z" transform="translate(-451.121 -230.954)" fill="#fd6f8d"/>
    <path id="Caminho_273" data-name="Caminho 273" d="M926.246,251l16.111,13.863s9.492,9.742,5.5,25.478c0,0-1.748,22.98-3.747,23.98,0,0-6.994,13.988-7.494,27.227,0,0-9.367-18.859-13.613-7.369s-14.118,13.114-14.118,13.114l5.5-67.964S928.244,255.225,926.246,251Z" transform="translate(-482.132 -209.741)" opacity="0.1"/>
    <path id="Caminho_274" data-name="Caminho 274" d="M927.166,251l16.111,13.863s9.492,9.742,5.5,25.478c0,0-1.748,22.98-3.747,23.98,0,0-6.994,13.988-7.494,27.227,0,0-9.867-19.858-14.118-8.368S909.8,347.3,909.8,347.3l5.5-67.937S929.164,255.225,927.166,251Z" transform="translate(-482.552 -209.741)" fill="#fd6f8d"/>
    <path id="Caminho_275" data-name="Caminho 275" d="M946.206,358.416s4-2.748,10.491,4.746L940.71,392.137l-5.371-8.107S946.705,361.663,946.206,358.416Z" transform="translate(-494.224 -258.604)" fill="#fec3be"/>
    <path id="Caminho_276" data-name="Caminho 276" d="M948.22,358.246s8.84,9.926,12.289,8.335l3.193-7.434L951.717,354Z" transform="translate(-500.11 -256.81)" opacity="0.1"/>
    <path id="Caminho_277" data-name="Caminho 277" d="M948.22,357.326s8.84,9.926,12.289,8.335l3.193-7.434-11.984-5.148Z" transform="translate(-500.11 -256.39)" fill="#fd6f8d"/>
    <path id="Caminho_278" data-name="Caminho 278" d="M935.033,402.51s4.208,8.623,6.451,9.123l-3.258,3.747-4.746-8.992Z" transform="translate(-493.374 -278.979)" opacity="0.1"/>
    <path id="Caminho_279" data-name="Caminho 279" d="M934.564,403s4.208,8.623,6.451,9.123l-3.258,3.747L933,406.861Z" transform="translate(-493.154 -279.203)" fill="#4d4981"/>
    <path id="Caminho_280" data-name="Caminho 280" d="M949.259,304.78s.5,17.985-1.5,24.729" transform="translate(-499.899 -234.318)" opacity="0.1"/>
    <path id="Caminho_281" data-name="Caminho 281" d="M876,308.277s3-1,3-3.5" transform="translate(-467.106 -234.318)" opacity="0.1"/>
    <path id="Caminho_282" data-name="Caminho 282" d="M198.9,316.76s-14.238,29.453-4.887,64.31,6.38,76.565-2.943,86.883" transform="translate(-153.996 -239.792)" fill="none" stroke="#535461" stroke-miterlimit="10" stroke-width="2"/>
    <circle id="Elipse_55" data-name="Elipse 55" cx="3.926" cy="3.926" r="3.926" transform="translate(40.978 73.047)" fill="#ff7657"/>
    <path id="Caminho_283" data-name="Caminho 283" d="M194.79,349.365s14.759,2.661,18.685-2.715" transform="translate(-155.805 -253.452)" fill="none" stroke="#535461" stroke-miterlimit="10" stroke-width="2"/>
    <path id="Caminho_284" data-name="Caminho 284" d="M185.133,354.175s-8.878-9.823-8.39-15.715" transform="translate(-147.55 -249.709)" fill="none" stroke="#535461" stroke-miterlimit="10" stroke-width="2"/>
    <path id="Caminho_285" data-name="Caminho 285" d="M190.82,389.115s8.075,2.129,15.443-13.575" transform="translate(-153.991 -266.654)" fill="none" stroke="#535461" stroke-miterlimit="10" stroke-width="2"/>
    <path id="Caminho_286" data-name="Caminho 286" d="M179.768,406.74s-20.092-12.929-17.643-21.27" transform="translate(-140.784 -271.192)" fill="none" stroke="#535461" stroke-miterlimit="10" stroke-width="2"/>
    <path id="Caminho_287" data-name="Caminho 287" d="M200.57,431.038s14.075-12.489,12.6-24.778" transform="translate(-158.447 -280.692)" fill="none" stroke="#535461" stroke-miterlimit="10" stroke-width="2"/>
    <path id="Caminho_288" data-name="Caminho 288" d="M188.756,457.089s-17.92-5.007-17.377-12.859" transform="translate(-145.102 -298.044)" fill="none" stroke="#535461" stroke-miterlimit="10" stroke-width="2"/>
    <path id="Caminho_289" data-name="Caminho 289" d="M205.69,472.834S216.979,462.375,218.451,456" transform="translate(-160.786 -303.423)" fill="none" stroke="#535461" stroke-miterlimit="10" stroke-width="2"/>
    <path id="Caminho_290" data-name="Caminho 290" d="M196.977,502.59S185.394,489.069,184.9,482.2" transform="translate(-151.286 -315.396)" fill="none" stroke="#535461" stroke-miterlimit="10" stroke-width="2"/>
    <path id="Caminho_291" data-name="Caminho 291" d="M207.14,522.46s12.962-14.4,13.939-21.27" transform="translate(-161.449 -324.074)" fill="none" stroke="#535461" stroke-miterlimit="10" stroke-width="2"/>
    <circle id="Elipse_56" data-name="Elipse 56" cx="3.926" cy="3.926" r="3.926" transform="translate(25.268 85.808)" fill="#ff7657"/>
    <circle id="Elipse_57" data-name="Elipse 57" cx="3.926" cy="3.926" r="3.926" transform="translate(20.853 142.26)" fill="#ff7657"/>
    <circle id="Elipse_58" data-name="Elipse 58" cx="3.926" cy="3.926" r="3.926" transform="translate(17.416 110.352)" fill="#ff7657"/>
    <circle id="Elipse_59" data-name="Elipse 59" cx="3.926" cy="3.926" r="3.926" transform="translate(53.744 89.245)" fill="#ff7657"/>
    <circle id="Elipse_60" data-name="Elipse 60" cx="3.926" cy="3.926" r="3.926" transform="translate(53.744 149.623)" fill="#ff7657"/>
    <circle id="Elipse_61" data-name="Elipse 61" cx="3.926" cy="3.926" r="3.926" transform="translate(47.363 104.955)" fill="#ff7657"/>
    <circle id="Elipse_62" data-name="Elipse 62" cx="3.926" cy="3.926" r="3.926" transform="translate(55.215 175.645)" fill="#ff7657"/>
    <circle id="Elipse_63" data-name="Elipse 63" cx="3.926" cy="3.926" r="3.926" transform="translate(28.705 165.333)" fill="#ff7657"/>
    <circle id="Elipse_64" data-name="Elipse 64" cx="3.926" cy="3.926" r="3.926" transform="translate(51.289 121.642)" fill="#ff7657"/>
  </g>
</svg>
