<svg id="Layer_1" enable-background="new 0 0 480.001 480.001" height="512" viewBox="0 0 480.001 480.001" width="512" xmlns="http://www.w3.org/2000/svg"><path d="m402.001 424.743v47.257c0 4.418-3.582 8-8 8s-8-3.582-8-8v-47.257c0-36.794-29.775-66.572-66.573-66.571-6.405 0-12.588-1.21-18.302-3.467l-18.26 118.514c-.672 4.369-4.76 7.361-9.124 6.688-4.367-.673-7.361-4.758-6.688-9.125l19.3-125.265c-3.517-3.176-6.628-6.876-9.184-11.073-2.299-3.773-1.104-8.695 2.67-10.994 3.772-2.3 8.695-1.103 10.994 2.67 6.059 9.946 16.761 16.051 28.594 16.051 45.636 0 82.573 36.93 82.573 82.572zm-132.14-52.86c-2.706-3.493-7.73-4.134-11.224-1.428l-18.637 14.428-45.744-35.415-.611-3.963c9.199-8.286 15.161-19.74 16.185-32.718 68.296 20.106 136.619-31.147 137.166-101.824.005-.178.003-55.785.003-55.963 0-3-1.723-5.859-4.551-7.21-1.745-.837-34.143-7.798-48.014-42.741-2.282-5.752-10.012-6.86-13.796-1.901-29.275 38.373-70.847 64.005-117.444 73.241-4.334.859-7.15 5.069-6.292 9.403.756 3.809 4.099 6.446 7.839 6.446 2.01 0 69.356-9.956 120.584-69.472 10.653 18.22 26.964 31.263 45.674 38.044v49.316c0 50.178-40.822 91-91 91-46.964 0-91-36.503-91-94.125 0-4.418-3.582-8-8-8s-8 3.582-8 8c0 .414-.008 4.417.013 4.815.652 41.825 25.424 77.904 60.987 94.908v2.107c0 8.913-3.476 17.287-9.787 23.581-11.232 11.199-25.725 9.761-23.642 9.761-12.9 0-25.339 2.959-36.571 8.519v-243.192c0-50.453 41.047-91.5 91.5-91.5h50c50.453 0 91.5 41.047 91.5 91.5v216.5c0 4.418 3.582 8 8 8s8-3.582 8-8v-216.5c0-59.276-48.225-107.5-107.5-107.5h-50c-59.275 0-107.5 48.224-107.5 107.5v253.57c-19.144 15.864-30 38.892-30 63.673v47.257c0 4.418 3.582 8 8 8s8-3.582 8-8v-47.257c0-17.782 6.925-34.5 19.499-47.074 22.224-22.224 50.474-19.498 47.075-19.498 6.37 0 12.552-1.205 18.298-3.488l18.263 118.534c.608 3.954 4.016 6.783 7.896 6.783 4.923 0 8.661-4.382 7.916-9.219l-15.151-98.339 37.307 28.883c2.889 2.236 6.917 2.229 9.795 0l23.534-18.22c3.494-2.704 4.134-7.729 1.43-11.222z"/></svg>