<?xml version="1.0"?>
<svg xmlns="http://www.w3.org/2000/svg" id="Capa_1" enable-background="new 0 0 512 512" height="512px" viewBox="0 0 512 512" width="512px" class=""><g><g><g><path d="m256 178.565c-4.267 0-7.726-3.459-7.726-7.726v-38.46c0-4.267 3.459-7.726 7.726-7.726s7.726 3.459 7.726 7.726v38.46c0 4.266-3.459 7.726-7.726 7.726z" fill="#e4f6ff" data-original="#E4F6FF" class="" style="fill:#778995" data-old_color="#e4f6ff"/></g><g><g><path d="m290.019 178.565c-4.267 0-7.726-3.459-7.726-7.726v-19.23c0-4.267 3.459-7.726 7.726-7.726h110.783v-11.504c0-4.267 3.459-7.726 7.726-7.726s7.726 3.459 7.726 7.726v19.23c0 4.267-3.459 7.726-7.726 7.726h-110.783v11.504c0 4.266-3.459 7.726-7.726 7.726z" fill="#e4f6ff" data-original="#E4F6FF" class="" style="fill:#778995" data-old_color="#e4f6ff"/></g><g><path d="m221.981 178.565c-4.267 0-7.726-3.459-7.726-7.726v-11.504h-110.783c-4.267 0-7.726-3.459-7.726-7.726v-19.23c0-4.267 3.459-7.726 7.726-7.726s7.726 3.459 7.726 7.726v11.504h110.783c4.267 0 7.726 3.459 7.726 7.726v19.23c0 4.266-3.459 7.726-7.726 7.726z" fill="#e4f6ff" data-original="#E4F6FF" class="" style="fill:#778995" data-old_color="#e4f6ff"/></g></g><path d="m304.698 488.435v-2.737l-17.256-15.935v-79.067l-4.266-2.546c-5.218 2.124-10.92 3.3-16.894 3.3-17.466 0-31.194-8.454-39.027-20.542l-53.491 20.891c-10.546 4.34-24.667 17.996-24.667 38.26v29.016h42.335v52.925h99.02c-.001 0-.001 0-.001 0h6.004l-18.93-13.151v-10.414z" fill="#dd636e" data-original="#DD636E" class="" style="fill:#5F7D95" data-old_color="#dd636e"/><path d="m167.77 430.444c0-21.275 11.783-36.281 19.818-44.042l-13.823 5.398c-10.546 4.34-24.667 17.996-24.667 38.26v29.016h18.672c0-10.586 0-20.632 0-28.632z" fill="#da4a54" data-original="#DA4A54" class="" data-old_color="#da4a54" style="fill:#3F4C55"/><path d="m149.097 458.046v45.771c0 4.519 3.664 8.183 8.183 8.183h34.152v-53.954z" fill="#ffcebe" data-original="#FFCEBE" class="" style="fill:#E3E9ED" data-old_color="#ffcebe"/><path d="m167.77 458.046h-18.672v45.771c0 4.519 3.663 8.183 8.183 8.183h10.489c0-14.029 0-34.947 0-53.954z" fill="#ffb1a0" data-original="#FFB1A0" class="" data-old_color="#ffb1a0" style="fill:#B8B4B2"/><path d="m293.098 366.791c-1.368-.806-2.242-2.283-2.246-3.914l-.005-16.517c-7.175 4.306-15.564 6.789-24.523 6.789-9.886 0-18.645-2.554-25.939-6.872v16.572c0 1.879-.903 2.986-1.943 3.692l-11.727 4.58c7.735 12.529 21.706 21.361 39.568 21.361 5.974 0 11.676-1.176 16.894-3.3l2.034-1.403 2.06-13.478 6.353-6.267z" fill="#ffcebe" data-original="#FFCEBE" class="" style="fill:#E3E9ED" data-old_color="#ffcebe"/><path d="m265.632 353.138c-9.602-.117-18.125-2.644-25.247-6.861v16.572c0 1.879-.903 2.986-1.943 3.692l-11.727 4.58c7.64 12.375 21.37 21.127 38.917 21.341z" fill="#ffb1a0" data-original="#FFB1A0" class="" data-old_color="#ffb1a0" style="fill:#B8B4B2"/><path d="m420.557 365.381h-120.778c-9.169 0-16.602 7.433-16.602 16.603v87.113c0 9.169 7.433 17.632 16.602 17.632h120.779c9.169 0 16.602-8.463 16.602-17.632v-87.113c0-9.17-7.433-16.603-16.603-16.603z" fill="#d3effb" data-original="#D3EFFB" class="" style="fill:#374957" data-old_color="#d3effb"/><path d="m319.284 469.096v-87.113c0-9.169 7.433-16.603 16.603-16.603h-36.108c-9.169 0-16.602 7.433-16.602 16.603v87.113c0 9.169 7.433 17.632 16.602 17.632h36.108c-9.169 0-16.603-8.463-16.603-17.632z" fill="#b1e4f9" data-original="#B1E4F9" class="" style="fill:#283035" data-old_color="#b1e4f9"/><g><path d="m365.026 433.266h-9.717c-4.267 0-7.726-3.459-7.726-7.726s3.459-7.726 7.726-7.726h9.717c4.267 0 7.726 3.459 7.726 7.726.001 4.267-3.458 7.726-7.726 7.726z" fill="#f4fbff" data-original="#F4FBFF" class=""/></g><path d="m442.691 485.698h-165.046c-3.726 0-6.747 3.021-6.747 6.747 0 10.8 8.755 19.555 19.555 19.555h139.43c10.8 0 19.555-8.755 19.555-19.555 0-3.726-3.021-6.747-6.747-6.747z" fill="#e4f6ff" data-original="#E4F6FF" class="" style="fill:#778995" data-old_color="#e4f6ff"/><path d="m307.006 492.445c0-3.726 3.021-6.747 6.747-6.747h-36.108c-3.726 0-6.747 3.021-6.747 6.747 0 10.8 8.755 19.555 19.555 19.555h36.108c-10.8 0-19.555-8.755-19.555-19.555z" fill="#d3effb" data-original="#D3EFFB" class="" style="fill:#374957" data-old_color="#d3effb"/><path d="m199.159 512v-82.202c0-4.267-3.459-7.726-7.726-7.726s-7.726 3.459-7.726 7.726v82.202z" fill="#da4a54" data-original="#DA4A54" class="" data-old_color="#da4a54" style="fill:#3F4C55"/><path d="m298.248 259.508c0-.879-1.177-1.182-1.591-.407-5.348 10.002-15.887 16.81-28.022 16.81h-51.497v31.496c0 24.983 19.575 47.802 49.186 47.802 26.358 0 47.802-21.444 47.802-47.802v-31.523c-8.779-.282-15.878-7.532-15.878-16.376z" fill="#ffdecf" data-original="#FFDECF" class="" style="fill:#ECEBEB" data-old_color="#ffdecf"/><g><path d="m244.953 307.408v-31.496h-27.815v31.496c0 24.983 19.575 47.802 49.185 47.802 4.673 0 9.186-.686 13.458-1.942-21.41-6.002-34.828-25.183-34.828-45.86z" fill="#ffcebe" data-original="#FFCEBE" class="" style="fill:#E3E9ED" data-old_color="#ffcebe"/></g><path d="m308.341 218.763c-4.298.331-8.241-2.372-9.068-6.602-1.393-7.124-4.92-14.194-18.699-14.194h-47.804c-17.544 0-31.767 14.222-31.767 31.767v34.863c0 7.387 5.988 13.375 13.375 13.375h54.255c12.135 0 22.675-6.808 28.022-16.81.415-.775 1.591-.473 1.591.407 0 9.022 7.382 16.404 16.404 16.404 4.729 0 8.598-3.869 8.598-8.598v-36.381c.003-8.573-7.475-14.803-14.907-14.231z" fill="#b06c6c" data-original="#B06C6C" class="" data-old_color="#b06c6c" style="fill:#0E2A47"/><g><path d="m228.819 264.596v-34.863c0-17.544 14.223-31.766 31.767-31.766h-27.816c-17.544 0-31.767 14.222-31.767 31.766v34.863c0 7.387 5.988 13.376 13.376 13.376h27.815c-7.387 0-13.375-5.989-13.375-13.376z" fill="#9d5e5e" data-original="#9D5E5E" class="active-path" style="fill:#202429" data-old_color="#9d5e5e"/></g><path d="m68.596 91.542 1.885-1.401h64.902l2.963 1.402c10.762-9.6 17.545-23.567 17.545-39.124 0-28.95-23.469-52.419-52.42-52.419s-52.419 23.469-52.419 52.419c0 15.556 6.783 29.523 17.544 39.123z" fill="#3f6d8e" data-original="#3F6D8E" class="" data-old_color="#3f6d8e" style="fill:#98ADBC"/><g><path d="m73.716 52.419c0-25.058 17.587-45.996 41.087-51.177-3.65-.805-7.439-1.242-11.332-1.242-28.95 0-52.419 23.469-52.419 52.419 0 15.556 6.782 29.522 17.544 39.123l1.885-1.401h19.287c-9.888-9.534-16.052-22.902-16.052-37.722z" fill="#365e7d" data-original="#365E7D" class=""/></g><circle cx="103.471" cy="48.79" fill="#ffdecf" r="20.202" data-original="#FFDECF" class="" style="fill:#ECEBEB" data-old_color="#ffdecf"/><path d="m109.389 63.075c-7.889-7.89-7.889-20.681 0-28.57 1.277-1.277 2.692-2.325 4.184-3.188-7.727-4.472-17.774-3.424-24.386 3.188-7.889 7.89-7.889 20.681 0 28.57 6.613 6.612 16.659 7.66 24.386 3.188-1.493-.863-2.908-1.911-4.184-3.188z" fill="#ffcebe" data-original="#FFCEBE" class="" style="fill:#E3E9ED" data-old_color="#ffcebe"/><path d="m118.187 68.992c-6.237 0-24.342 0-29.431 0-11.137 0-20.165 9.028-20.165 20.165v2.388c9.266 8.267 21.485 13.293 34.88 13.293s25.614-5.027 34.88-13.293v-2.388c0-11.137-9.028-20.165-20.164-20.165z" fill="#b3e59f" data-original="#B3E59F" class="" style="fill:#194C80" data-old_color="#b3e59f"/><path d="m95.745 88.127c0-8.922 5.8-16.477 13.831-19.135-7.709 0-17.328 0-20.82 0-11.137 0-20.165 9.028-20.165 20.165v2.388c7.45 6.646 16.81 11.192 27.154 12.721z" fill="#95d6a4" data-original="#95D6A4" class="" style="fill:#5F7D95" data-old_color="#95d6a4"/><path d="m373.653 91.542 1.885-1.401h64.902l2.963 1.402c10.762-9.6 17.545-23.567 17.545-39.124 0-28.95-23.469-52.419-52.42-52.419-28.95 0-52.419 23.469-52.419 52.419 0 15.557 6.783 29.523 17.544 39.123z" fill="#3f6d8e" data-original="#3F6D8E" class="" data-old_color="#3f6d8e" style="fill:#98ADBC"/><g><path d="m378.773 52.419c0-25.058 17.587-45.996 41.087-51.177-3.65-.805-7.439-1.242-11.332-1.242-28.95 0-52.419 23.469-52.419 52.419 0 15.556 6.782 29.522 17.544 39.123l1.885-1.401h19.287c-9.887-9.534-16.052-22.902-16.052-37.722z" fill="#365e7d" data-original="#365E7D" class=""/></g><circle cx="408.528" cy="48.79" fill="#ffdecf" r="20.202" data-original="#FFDECF" class="" style="fill:#ECEBEB" data-old_color="#ffdecf"/><path d="m414.446 63.075c-7.889-7.89-7.889-20.681 0-28.57 1.277-1.277 2.692-2.325 4.184-3.188-7.727-4.472-17.774-3.424-24.386 3.188-7.889 7.89-7.889 20.681 0 28.57 6.613 6.612 16.659 7.66 24.386 3.188-1.492-.863-2.907-1.911-4.184-3.188z" fill="#ffcebe" data-original="#FFCEBE" class="" style="fill:#E3E9ED" data-old_color="#ffcebe"/><path d="m423.244 68.992c-6.237 0-24.342 0-29.431 0-11.137 0-20.165 9.028-20.165 20.165v2.388c9.266 8.267 21.485 13.293 34.88 13.293s25.614-5.027 34.88-13.293v-2.388c.001-11.137-9.028-20.165-20.164-20.165z" fill="#ffaa5b" data-original="#FFAA5B" class="" style="fill:#194C80" data-old_color="#ffaa5b"/><path d="m400.802 88.127c0-8.922 5.8-16.477 13.831-19.135-7.709 0-17.328 0-20.82 0-11.137 0-20.165 9.028-20.165 20.165v2.388c7.45 6.646 16.81 11.192 27.154 12.721z" fill="#ff9838" data-original="#FF9838" class="" style="fill:#5F7D95" data-old_color="#ff9838"/><path d="m221.125 91.542 1.885-1.401h64.902l2.963 1.402c10.762-9.6 17.545-23.567 17.545-39.124-.001-28.95-23.47-52.419-52.42-52.419s-52.419 23.469-52.419 52.419c0 15.557 6.782 29.523 17.544 39.123z" fill="#3f6d8e" data-original="#3F6D8E" class="" data-old_color="#3f6d8e" style="fill:#98ADBC"/><g><path d="m226.245 52.419c0-25.058 17.587-45.996 41.087-51.177-3.651-.805-7.439-1.242-11.332-1.242-28.95 0-52.419 23.469-52.419 52.419 0 15.556 6.782 29.522 17.544 39.123l1.885-1.401h19.287c-9.888-9.534-16.052-22.902-16.052-37.722z" fill="#365e7d" data-original="#365E7D" class=""/></g><circle cx="256" cy="48.79" fill="#ffdecf" r="20.202" data-original="#FFDECF" class="" style="fill:#ECEBEB" data-old_color="#ffdecf"/><path d="m261.917 63.075c-7.889-7.89-7.889-20.681 0-28.57 1.277-1.277 2.692-2.325 4.184-3.188-7.727-4.472-17.774-3.424-24.387 3.188-7.889 7.89-7.889 20.681 0 28.57 6.613 6.612 16.659 7.66 24.387 3.188-1.492-.863-2.907-1.911-4.184-3.188z" fill="#ffcebe" data-original="#FFCEBE" class="" style="fill:#E3E9ED" data-old_color="#ffcebe"/><path d="m270.715 68.992c-6.237 0-24.342 0-29.431 0-11.137 0-20.165 9.028-20.165 20.165v2.388c9.266 8.267 21.485 13.293 34.88 13.293s25.614-5.027 34.88-13.293v-2.388c.001-11.137-9.027-20.165-20.164-20.165z" fill="#90d8f9" data-original="#90D8F9" class="" style="fill:#194C80" data-old_color="#90d8f9"/><path d="m248.274 88.127c0-8.922 5.8-16.477 13.831-19.135-7.709 0-17.328 0-20.82 0-11.137 0-20.165 9.028-20.165 20.165v2.388c7.45 6.646 16.81 11.192 27.154 12.721z" fill="#75cef9" data-original="#75CEF9" class="" style="fill:#5F7D95" data-old_color="#75cef9"/></g></g> </svg>
